<svg xmlns="http://www.w3.org/2000/svg" xmlns:xlink="http://www.w3.org/1999/xlink" viewBox="0 0 22.83 21.63"><defs><style>.cls-1{fill:url(#linear-gradient);}.cls-2{fill:url(#linear-gradient-2);}.cls-3{fill:url(#linear-gradient-3);}.cls-4{fill:url(#linear-gradient-4);}.cls-5{fill:url(#linear-gradient-5);}.cls-6{fill:url(#linear-gradient-6);}.cls-7{fill:url(#linear-gradient-7);}.cls-8{fill:url(#linear-gradient-8);}.cls-9{fill:url(#linear-gradient-9);}</style><linearGradient id="linear-gradient" x1="17.82" y1="3.96" x2="18.75" y2="3.96" gradientUnits="userSpaceOnUse"><stop offset="0" stop-color="#00afb1"/><stop offset="1" stop-color="#7a55de"/></linearGradient><linearGradient id="linear-gradient-2" x1="16.07" y1="3.06" x2="20.5" y2="3.06" xlink:href="#linear-gradient"/><linearGradient id="linear-gradient-3" x1="0" y1="17.51" x2="22.83" y2="17.51" xlink:href="#linear-gradient"/><linearGradient id="linear-gradient-4" x1="0.25" y1="10.08" x2="15.26" y2="10.08" xlink:href="#linear-gradient"/><linearGradient id="linear-gradient-5" x1="19.05" y1="11.68" x2="22.58" y2="11.68" xlink:href="#linear-gradient"/><linearGradient id="linear-gradient-6" x1="9.56" y1="16.51" x2="19.05" y2="16.51" xlink:href="#linear-gradient"/><linearGradient id="linear-gradient-7" x1="9.56" y1="18.52" x2="19.05" y2="18.52" xlink:href="#linear-gradient"/><linearGradient id="linear-gradient-8" x1="3.52" y1="17.51" x2="6.97" y2="17.51" xlink:href="#linear-gradient"/><linearGradient id="linear-gradient-9" x1="14.33" y1="3.96" x2="22.25" y2="3.96" xlink:href="#linear-gradient"/></defs><title>import driveAsset 17</title><g id="Layer_2" data-name="Layer 2"><g id="app_layout_1" data-name="app layout 1"><path class="cls-1" d="M18.28,6.2h0a.47.47,0,0,1-.46-.46V2.18a.47.47,0,0,1,.47-.46h0a.46.46,0,0,1,.46.47V5.74A.47.47,0,0,1,18.28,6.2Z"/><path class="cls-2" d="M20,4.4a.47.47,0,0,1-.33-.14L18.29,2.84,16.87,4.26a.47.47,0,1,1-.66-.66L18,1.85a.47.47,0,0,1,.66,0L20.36,3.6a.47.47,0,0,1-.33.8Z"/><path class="cls-3" d="M18.71,21.63H4.12a4.12,4.12,0,1,1,0-8.23H18.71a4.12,4.12,0,1,1,0,8.23ZM4.12,14.33a3.18,3.18,0,1,0,0,6.36H18.71a3.18,3.18,0,1,0,0-6.36Z"/><path class="cls-4" d="M.72,16.59l-.13,0A.47.47,0,0,1,.27,16L3.74,4.11a.73.73,0,0,1,.7-.53H14.79a.47.47,0,1,1,0,.93H4.59L1.16,16.25A.45.45,0,0,1,.72,16.59Z"/><path class="cls-5" d="M22.11,16.59a.47.47,0,0,1-.45-.33l-2.59-8.9a.47.47,0,0,1,.32-.58A.46.46,0,0,1,20,7.1l2.6,8.9a.47.47,0,0,1-.32.58Z"/><path class="cls-6" d="M18.59,17H10A.47.47,0,1,1,10,16h8.56a.47.47,0,0,1,0,.93Z"/><path class="cls-7" d="M18.59,19H10a.46.46,0,0,1-.47-.46.47.47,0,0,1,.47-.47h8.56a.47.47,0,0,1,.46.47A.46.46,0,0,1,18.59,19Z"/><path class="cls-8" d="M5.25,19.24A1.73,1.73,0,1,1,7,17.51,1.74,1.74,0,0,1,5.25,19.24Zm0-2.52a.79.79,0,1,0,.79.79A.79.79,0,0,0,5.25,16.72Z"/><path class="cls-9" d="M18.29,7.92a4,4,0,1,1,4-4A4,4,0,0,1,18.29,7.92Zm0-7a3,3,0,1,0,3,3A3,3,0,0,0,18.29.93Z"/></g></g></svg>