<svg xmlns="http://www.w3.org/2000/svg" viewBox="0 0 20.98 20.98"><defs><style>.cls-1{fill:#fff;}</style></defs><title>settingsAsset 21</title><g id="Layer_2" data-name="Layer 2"><g id="app_layout_1" data-name="app layout 1"><path class="cls-1" d="M11.59,16.05a.71.71,0,0,1-.72.71H10.1a.71.71,0,0,1-.71-.71V8.41a.71.71,0,0,1,.71-.71h.77a.71.71,0,0,1,.72.71ZM10.49,4.22A1.28,1.28,0,1,0,11.77,5.5,1.28,1.28,0,0,0,10.49,4.22Z"/><path class="cls-1" d="M10.49,21A10.49,10.49,0,0,1,3.07,3.07,10.49,10.49,0,1,1,10.49,21Zm0-19.61a9.12,9.12,0,1,0,9.12,9.12A9.13,9.13,0,0,0,10.49,1.37Z"/></g></g></svg>