<svg xmlns="http://www.w3.org/2000/svg" viewBox="0 0 40 39"><defs><style>.cls-1{fill:#fff;}</style></defs><title>Asset 4</title><g id="Layer_2" data-name="Layer 2"><g id="cloud_service" data-name="cloud service"><path id="_Path_" data-name="&lt;Path&gt;" class="cls-1" d="M34.31,32.81a.83.83,0,0,1,.09.69c-.11.27-.32.5-.39.5H9.16C7.33,34,5,32.05,5,30.22V8.46C5,6.63,7.33,5,9.16,5h28A2.56,2.56,0,0,0,40,2.5,2.56,2.56,0,0,0,37.2,0h-28C4.26,0,0,3.56,0,8.46V30.22A9.05,9.05,0,0,0,9.16,39H34a5.86,5.86,0,0,0,3.44-1,5.93,5.93,0,0,0,.8-9.09l-6.66-6.7a2.09,2.09,0,0,0-.22-.2l-1.44-1.46a.81.81,0,0,1,0-1.14l4.15-4.21a2.8,2.8,0,0,0,0-3.93h0a2.53,2.53,0,0,0-1.93-.66h0a3,3,0,0,0-2,1l-4.06,4a.82.82,0,0,1-1.15-.06l-4.2-4.17a2.8,2.8,0,0,0-3.93,0h0a2.79,2.79,0,0,0,0,4l4.14,4.09a.78.78,0,0,1,.24.58.81.81,0,0,1-.23.57l-4.19,4.2a2.8,2.8,0,0,0,0,3.95l0,0a2.8,2.8,0,0,0,3.93,0l4.2-4.28c.16-.15.36-.37.57-.37h0c.22,0,.42.22.57.38l4.06,4.18"/></g></g></svg>