<svg xmlns="http://www.w3.org/2000/svg" viewBox="0 0 20 20"><defs><style>.cls-1{fill:#fff;}</style></defs><title>settingsAsset 20</title><g id="Layer_2" data-name="Layer 2"><g id="app_layout_1" data-name="app layout 1"><path class="cls-1" d="M11.58,20H8.42a1.69,1.69,0,0,1-1.68-1.69v-.43l-.31.31a1.66,1.66,0,0,1-1.19.49,1.65,1.65,0,0,1-1.19-.49L1.81,16a1.71,1.71,0,0,1,0-2.39l.31-.3H1.69A1.69,1.69,0,0,1,0,11.58V8.42A1.69,1.69,0,0,1,1.69,6.74h.43l-.31-.31a1.7,1.7,0,0,1,0-2.38L4.05,1.81a1.65,1.65,0,0,1,1.19-.49,1.66,1.66,0,0,1,1.19.49l.31.31V1.69A1.69,1.69,0,0,1,8.42,0h3.16a1.69,1.69,0,0,1,1.69,1.69v.43l.3-.31a1.66,1.66,0,0,1,1.19-.49,1.69,1.69,0,0,1,1.2.49L18.19,4a1.69,1.69,0,0,1,0,2.39l-.31.31h.43A1.69,1.69,0,0,1,20,8.42v3.16a1.69,1.69,0,0,1-1.69,1.68h-.43l.31.31a1.69,1.69,0,0,1,0,2.39L16,18.19a1.69,1.69,0,0,1-1.2.49,1.66,1.66,0,0,1-1.19-.49l-.3-.31v.43A1.69,1.69,0,0,1,11.58,20ZM6.69,16.58a.59.59,0,0,1,.23.05l.57.24a.56.56,0,0,1,.37.52v.92a.56.56,0,0,0,.56.57h3.16a.57.57,0,0,0,.57-.57v-.92a.55.55,0,0,1,.36-.52l.57-.24a.57.57,0,0,1,.63.11l.65.66a.6.6,0,0,0,.81,0l2.23-2.24a.57.57,0,0,0,0-.8l-.66-.65a.57.57,0,0,1-.11-.63q.14-.3.24-.57a.55.55,0,0,1,.52-.36h.92a.57.57,0,0,0,.57-.57V8.42a.57.57,0,0,0-.57-.57h-.92a.55.55,0,0,1-.52-.36q-.11-.27-.24-.57a.57.57,0,0,1,.11-.63l.66-.65a.57.57,0,0,0,0-.8L15.16,2.6a.59.59,0,0,0-.8,0l-.65.66a.57.57,0,0,1-.63.11l-.57-.24a.55.55,0,0,1-.36-.52V1.69a.57.57,0,0,0-.57-.57H8.42a.57.57,0,0,0-.57.57v.92a.55.55,0,0,1-.36.52l-.57.24a.57.57,0,0,1-.63-.11L5.64,2.6a.59.59,0,0,0-.8,0L2.6,4.84a.57.57,0,0,0,0,.8l.66.65a.57.57,0,0,1,.11.63c-.09.21-.17.39-.23.57a.57.57,0,0,1-.53.36H1.69a.57.57,0,0,0-.57.57v3.16a.57.57,0,0,0,.57.57h.92a.57.57,0,0,1,.53.36c.06.18.14.36.23.57a.57.57,0,0,1-.11.63l-.66.65a.57.57,0,0,0,0,.8L4.84,17.4a.59.59,0,0,0,.8,0l.65-.66A.59.59,0,0,1,6.69,16.58ZM10,14.68A4.68,4.68,0,1,1,14.68,10,4.69,4.69,0,0,1,10,14.68Zm0-8.24A3.57,3.57,0,1,0,13.57,10,3.56,3.56,0,0,0,10,6.44Z"/></g></g></svg>