<svg xmlns="http://www.w3.org/2000/svg" xmlns:xlink="http://www.w3.org/1999/xlink" viewBox="0 0 22 16.82"><defs><style>.cls-1{fill:url(#linear-gradient);}</style><linearGradient id="linear-gradient" y1="8.41" x2="22" y2="8.41" gradientUnits="userSpaceOnUse"><stop offset="0" stop-color="#00afb1"/><stop offset="1" stop-color="#7a55de"/></linearGradient></defs><title>folderAsset 16</title><g id="Layer_2" data-name="Layer 2"><g id="app_layout_1" data-name="app layout 1"><path class="cls-1" d="M19.74,2.59H11.23a.28.28,0,0,1-.23-.1L9.16.65A2.29,2.29,0,0,0,7.54,0H2.26A2.25,2.25,0,0,0,0,2.26v12.3a2.25,2.25,0,0,0,2.26,2.26H19.74A2.25,2.25,0,0,0,22,14.56V4.85A2.25,2.25,0,0,0,19.74,2.59Zm0,12.94H2.26a1,1,0,0,1-1-1V2.26a1,1,0,0,1,1-1H7.54a.87.87,0,0,1,.68.3l1.84,1.84a1.64,1.64,0,0,0,1.13.48h8.55a1,1,0,0,1,1,1v9.7A1,1,0,0,1,19.74,15.53ZM7.18,3.88H3.24a.65.65,0,1,1,0-1.29H7.18A.65.65,0,1,1,7.18,3.88Z"/></g></g></svg>