<svg xmlns="http://www.w3.org/2000/svg" xmlns:xlink="http://www.w3.org/1999/xlink" viewBox="0 0 77.73 47.04"><defs><style>.cls-1{fill:url(#linear-gradient);}.cls-2{fill:url(#linear-gradient-2);}.cls-3{fill:url(#linear-gradient-3);}</style><linearGradient id="linear-gradient" x1="7207.48" y1="-6378.39" x2="7207.48" y2="-6409.78" gradientTransform="matrix(1, 0, 0, -1, -7172.91, -6363.39)" gradientUnits="userSpaceOnUse"><stop offset="0" stop-color="#00ffc2"/><stop offset="0.43" stop-color="#00d9a5"/><stop offset="1" stop-color="#00a07a"/></linearGradient><linearGradient id="linear-gradient-2" x1="7185.78" y1="-6376.7" x2="7185.78" y2="-6410.37" xlink:href="#linear-gradient"/><linearGradient id="linear-gradient-3" x1="7227.16" y1="-6363.39" x2="7227.16" y2="-6410.33" xlink:href="#linear-gradient"/></defs><title>sia logoAsset 8</title><g id="Layer_2" data-name="Layer 2"><g id="cloud_service" data-name="cloud service"><path id="Fill-1" class="cls-1" d="M34.56,15a3.63,3.63,0,0,0-3.68,3.58h0V42.83a3.69,3.69,0,0,0,7.37,0V18.59A3.63,3.63,0,0,0,34.57,15h0"/><path id="Fill-5" class="cls-2" d="M1.35,43.08A3.39,3.39,0,0,1,0,40.37a3.32,3.32,0,0,1,3.32-3.32h.06a3.59,3.59,0,0,1,2.07.66,13.75,13.75,0,0,0,8.37,3c3,0,4.73-1.17,4.73-3.07v-.09c0-1.83-1.13-2.77-6.6-4.17-6.61-1.68-10.86-3.51-10.86-10v-.09c0-5.95,4.77-9.88,11.47-9.88A19,19,0,0,1,23,16.27a3.27,3.27,0,0,1,1.59,2.86,3.32,3.32,0,0,1-3.32,3.32h-.06a3.42,3.42,0,0,1-1.83-.53,13.69,13.69,0,0,0-6.88-2.2c-2.77,0-4.21,1.27-4.21,2.86v.09c0,2.16,1.4,2.86,7.06,4.3,6.65,1.72,10.42,4.12,10.42,9.82v.09c0,6.5-5,10.16-12,10.16A21.26,21.26,0,0,1,1.38,43.11"/><g id="Fill-4"><path class="cls-3" d="M69.8,15.74a16.91,16.91,0,0,0-16.17-1h0a7.75,7.75,0,0,1-8.36-1.3L45,13.18,38.78,7h0a3.5,3.5,0,0,1-.87-2.75h0a3.53,3.53,0,0,0,0-.65,3.57,3.57,0,1,0-3.6,3.54A3.93,3.93,0,0,0,35,7.08h0a3.54,3.54,0,0,1,2.77.86h0L44,14.16l.24.27a7.75,7.75,0,0,1,1.29,8.37h0a16.88,16.88,0,0,0,3.32,19.13,17.26,17.26,0,0,0,10.58,5c1,.09,15.2,0,15.2,0A3.06,3.06,0,0,0,76.73,46a3.36,3.36,0,0,0,1-2.19V30a18.16,18.16,0,0,0-.16-1.81,16.81,16.81,0,0,0-7.84-12.54ZM70,26.8a16.71,16.71,0,0,1,.42,3v6.84a3,3,0,0,1-2.9,3.05h-6.8a13.16,13.16,0,0,1-3.12-.41,10,10,0,1,1,9.83-16.77A9,9,0,0,1,70,26.86Z"/></g></g></g></svg>