<svg xmlns="http://www.w3.org/2000/svg" xmlns:xlink="http://www.w3.org/1999/xlink" viewBox="0 0 1894.27 1884">
    <defs>
        <style>.cls-1{fill:url(#linear-gradient);}</style>
        <linearGradient id="linear-gradient" x1="168.82" y1="78.55" x2="1850.34" y2="1760.08"
                        gradientUnits="userSpaceOnUse">
            <stop offset="0" stop-color="#00afb1"/>
            <stop offset="1" stop-color="#7a55de"/>
        </linearGradient>
    </defs>
    <title>symbol colorAsset 6</title>
    <g id="Layer_2" data-name="Layer 2">
        <g id="Layer_1-2" data-name="Layer 1">
            <g id="_Group_" data-name="&lt;Group&gt;">
                <path id="_Path_" data-name="&lt;Path&gt;" class="cls-1"
                      d="M1621.91,1584.44c2.64,2.65,9.64,10.51,4.38,23.13S1611.1,1621,1607.36,1621H422.05c-87.36,0-155-72.67-155-160V423c0-87.36,67.69-160,155.05-160H1761.71c73.21,0,132.56-58.29,132.56-131.5S1834.92,0,1761.71,0H422.05C188.49,0,0,189.47,0,423V1461c0,233.56,188.49,423,422.05,423H1607.36c59.64,0,116.39-17.47,164.13-51a288.2,288.2,0,0,0,117.8-282.73c-9.81-57.53-37.21-110.23-79.22-152.55L1492.3,1077.59a134.36,134.36,0,0,0-10.45-9.46l-69-69.68a38.83,38.83,0,0,1-.06-54.43l198.19-200.88c51.21-51.91,50.93-136.09-.59-187.61l-.24-.38A132.36,132.36,0,0,0,1516,516h-.47a131.89,131.89,0,0,0-94.33,39.79L1227.33,752.37a38.79,38.79,0,0,1-54.69.47L972.17,556c-51.91-51-136-50.59-187.44.86l-.38.38A133.17,133.17,0,0,0,785,746.14l197.7,195a38.7,38.7,0,0,1,.25,54.87L783.37,1196.51c-51.68,51.91-51.59,136.28.21,188.07l1,1c51.56,51.56,135.75,51.84,187.66.63l200.47-197.9a38.53,38.53,0,0,1,27.17-11.28h.27a38.26,38.26,0,0,1,27.3,11.65l193.76,196.48"/>
            </g>
        </g>
    </g>
</svg>