<svg id="Layer_5" data-name="Layer 5" xmlns="http://www.w3.org/2000/svg" viewBox="0 0 204.54 120.87"><defs><style>.cls-1{fill:#20ee82;}</style></defs><title>SIA_NEW_WORDMARK_TRANSPARENT_01</title><path class="cls-1" d="M7391.74,7234.64h-27.47c-15.42,0-28.24-12.33-28.31-27.75a27.92,27.92,0,0,1,28-28c15.42.08,27.75,12.89,27.75,28.31Zm-27.89-74.38h0a46.49,46.49,0,1,0,0,93h46.49v-46.49a46.49,46.49,0,0,0-46.49-46.49" transform="translate(-7205.8 -7132.37)"/><rect class="cls-1" x="83.68" y="27.89" width="18.59" height="92.97"/><path class="cls-1" d="M7308.07,7141.67a9.3,9.3,0,1,1-9.3-9.3,9.3,9.3,0,0,1,9.3,9.3" transform="translate(-7205.8 -7132.37)"/><path class="cls-1" d="M7218.35,7224.42a41.06,41.06,0,0,0,12.4,9.39,32,32,0,0,0,14.2,3.75q7.37.06,12.14-3.47t4.79-7.53a8.57,8.57,0,0,0-2.85-6.77,16.4,16.4,0,0,0-8.14-3.52l-10.35-2.08q-17.19-3.41-23.82-9.38t-6.56-16a26.88,26.88,0,0,1,9.18-20.26q9.1-8.41,24.38-8.29a49.85,49.85,0,0,1,17,3,66.27,66.27,0,0,1,16.62,9.42l-5.35,6.77-5.11,6.46a39.22,39.22,0,0,0-11.89-7.74,31,31,0,0,0-10.87-2.27,19.77,19.77,0,0,0-11,2.93,9.23,9.23,0,0,0-4.71,8.08q0,7.29,11,9.38l18.41,3.79q22.44,4.54,22.32,23.68a27.24,27.24,0,0,1-2.18,10.28,29.65,29.65,0,0,1-6.56,9.61,31.08,31.08,0,0,1-11.38,7,45,45,0,0,1-16.08,2.53q-20.73-.16-38.18-15.78Z" transform="translate(-7205.8 -7132.37)"/></svg>