<svg xmlns="http://www.w3.org/2000/svg" xmlns:xlink="http://www.w3.org/1999/xlink" viewBox="0 0 139.54 68.15"><defs><style>.cls-1{fill:#2683ff;}.cls-2,.cls-3{fill:none;stroke-linecap:round;stroke-miterlimit:10;}.cls-2{stroke:url(#linear-gradient);}.cls-3{stroke:url(#linear-gradient-2);}.cls-4{fill:url(#linear-gradient-3);}</style><linearGradient id="linear-gradient" x1="77.15" y1="32.65" x2="78.15" y2="32.65" gradientUnits="userSpaceOnUse"><stop offset="0" stop-color="#00afb1"/><stop offset="1" stop-color="#7a55de"/></linearGradient><linearGradient id="linear-gradient-2" x1="778.69" y1="1166.4" x2="779.69" y2="1166.4" gradientTransform="translate(-1088.76 811.83) rotate(-90)" xlink:href="#linear-gradient"/><linearGradient id="linear-gradient-3" x1="7283.67" y1="-6361.7" x2="7283.67" y2="-6419.23" gradientTransform="matrix(1, 0, 0, -1, -7172.91, -6360.55)" gradientUnits="userSpaceOnUse"><stop offset="0" stop-color="#00ffc2"/><stop offset="0.43" stop-color="#00d9a5"/><stop offset="1" stop-color="#00a07a"/></linearGradient></defs><title>storj+sia logoAsset 9</title><g id="Layer_2" data-name="Layer 2"><g id="cloud_service" data-name="cloud service"><g id="_Group_" data-name="&lt;Group&gt;"><g id="_Group_2" data-name="&lt;Group&gt;"><path id="_Compound_Path_" data-name="&lt;Compound Path&gt;" class="cls-1" d="M60.51,19.77a5.4,5.4,0,0,1-2.77,4.8.78.78,0,0,0-.44.78q0,8.73,0,17.47a.73.73,0,0,0,.41.74A5.5,5.5,0,0,1,56,53.77a5.2,5.2,0,0,1-3.79-.67.81.81,0,0,0-.95,0q-7.5,4.35-15,8.68a.8.8,0,0,0-.47.81,5.52,5.52,0,0,1-10.91,1.2,7.1,7.1,0,0,1-.13-1.31.66.66,0,0,0-.36-.64q-7.64-4.38-15.25-8.79a.68.68,0,0,0-.77,0A5.48,5.48,0,0,1,.11,49.41a5.36,5.36,0,0,1,2.62-5.8.82.82,0,0,0,.49-.81q0-8.73,0-17.47a.73.73,0,0,0-.41-.74A5.51,5.51,0,0,1,4.74,14.34a5.25,5.25,0,0,1,3.64.76.6.6,0,0,0,.72,0q7.59-4.39,15.21-8.77a.76.76,0,0,0,.42-.74,5.52,5.52,0,0,1,11-1,3.85,3.85,0,0,1,.08.68,1.29,1.29,0,0,0,.79,1.28q7.38,4.22,14.74,8.5a.81.81,0,0,0,.93,0,5.5,5.5,0,0,1,8.19,3.68A9.75,9.75,0,0,1,60.51,19.77Zm-43.45,20-.12.11c-2.76,1.59-5.52,3.19-8.3,4.77a.7.7,0,0,1-.6,0,5,5,0,0,0-2.37-.76A4.54,4.54,0,0,0,1,48.11a4.49,4.49,0,0,0,4.56,4.75A4.46,4.46,0,0,0,10,48.28a.89.89,0,0,1,.52-.93q4.43-2.52,8.81-5.08a.76.76,0,0,1,.81,0,7.94,7.94,0,0,0,5.67.45,1,1,0,0,1,.64.08c.57.25,1.12.56,1.7.79a.6.6,0,0,1,.44.66q0,6.88,0,13.77a.61.61,0,0,1-.39.65A4.51,4.51,0,0,0,31,67.09a4.51,4.51,0,0,0,1.32-8.46.6.6,0,0,1-.4-.6q0-6.69,0-13.37c0-.4.18-.48.53-.54.91-.16,1.83-.34,2.73-.59a1.5,1.5,0,0,1,1.12,0,5.94,5.94,0,0,0,5.7-.41.62.62,0,0,1,.71,0q3.61,2.12,7.26,4.19a.9.9,0,0,1,.54.93,4.5,4.5,0,1,0,2.08-3.71.66.66,0,0,1-.8,0q-3.45-2-6.92-4c-.35-.19-.39-.37-.28-.74a6.08,6.08,0,0,0-1.46-6.25A31.34,31.34,0,0,1,41,30.35c-.17-.36-.1-.55.24-.75q5.27-3,10.52-6.06a.6.6,0,0,1,.74,0,4.29,4.29,0,0,0,3.26.67,4.5,4.5,0,1,0-5.3-4.29.79.79,0,0,1-.45.82q-5.34,3.06-10.64,6.14a.51.51,0,0,1-.75-.1,10.17,10.17,0,0,0-6-2.79c-.77-.1-.77-.09-.77-.89,0-4.18,0-8.36,0-12.54a1.2,1.2,0,0,1,.68-1.23A4.42,4.42,0,0,0,34.4,3.73,4.47,4.47,0,0,0,29,1.19a4.35,4.35,0,0,0-3.26,4,4.4,4.4,0,0,0,2.37,4.28c.28.15.47.28.47.66q0,6.9,0,13.82c0,.36-.17.49-.47.64a13.52,13.52,0,0,0-2.6,1.47,4.22,4.22,0,0,1-2.91,1.13h-.31a2,2,0,0,1-.89-.16c-3.58-2-7.15-4.12-10.74-6.16A1.06,1.06,0,0,1,10,19.7,2.68,2.68,0,0,0,9.93,19a4.44,4.44,0,0,0-5.12-3.62,4.5,4.5,0,1,0,3.12,8.24.68.68,0,0,1,.83,0l8.11,4.69c.47.26.93.53,1.39.8C15.15,32.35,14.8,35.89,17.06,39.75Z"/><path id="_Path_" data-name="&lt;Path&gt;" class="cls-1" d="M24.54,29.11a1.82,1.82,0,0,0,1.58-.66,7.41,7.41,0,0,1,7.8-1.76,7.42,7.42,0,0,1,5.22,5.95A1.57,1.57,0,0,0,40,33.87a4.25,4.25,0,0,1-1.46,7.86,4,4,0,0,1-2.81-.48,1,1,0,0,0-1.09,0,7.6,7.6,0,0,1-7.38-.59,1.14,1.14,0,0,0-1.06-.11,5.86,5.86,0,1,1-1.66-11.39Z"/><path id="_Path_2" data-name="&lt;Path&gt;" class="cls-1" d="M53.74,48.36A1.22,1.22,0,0,1,55,47.09a1.31,1.31,0,0,1,1.31,1.27A1.37,1.37,0,0,1,55,49.66,1.27,1.27,0,0,1,53.74,48.36Z"/><path id="_Path_3" data-name="&lt;Path&gt;" class="cls-1" d="M29,5.52a1.29,1.29,0,0,1,2.57,0,1.31,1.31,0,0,1-1.28,1.29A1.33,1.33,0,0,1,29,5.52Z"/><path id="_Path_4" data-name="&lt;Path&gt;" class="cls-1" d="M6.77,48.37a1.28,1.28,0,0,1-1.28,1.29A1.37,1.37,0,0,1,4.2,48.35a1.32,1.32,0,0,1,1.31-1.26A1.23,1.23,0,0,1,6.77,48.37Z"/><path id="_Path_5" data-name="&lt;Path&gt;" class="cls-1" d="M30.27,61.38A1.26,1.26,0,1,1,29,62.62,1.25,1.25,0,0,1,30.27,61.38Z"/><path id="_Path_6" data-name="&lt;Path&gt;" class="cls-1" d="M5.53,21.05a1.26,1.26,0,1,1,0-2.51,1.26,1.26,0,1,1,0,2.51Z"/><path id="_Path_7" data-name="&lt;Path&gt;" class="cls-1" d="M55,21.06a1.26,1.26,0,1,1,0-2.52,1.27,1.27,0,0,1,1.28,1.28A1.28,1.28,0,0,1,55,21.06Z"/></g></g><line id="_Path_8" data-name="&lt;Path&gt;" class="cls-2" x1="77.65" y1="26.15" x2="77.65" y2="39.15"/><line id="_Path_9" data-name="&lt;Path&gt;" class="cls-3" x1="71.15" y1="32.65" x2="84.15" y2="32.65"/><g id="Fill-4"><path class="cls-4" d="M129.82,20.43A20.73,20.73,0,0,0,110,19.25h0a9.52,9.52,0,0,1-10.25-1.59l-.38-.37L91.8,9.73h0a4.33,4.33,0,0,1-1.07-3.37h0a5.47,5.47,0,0,0,0-.81A4.38,4.38,0,1,0,86.32,9.9a4.8,4.8,0,0,0,.85-.08h0a4.33,4.33,0,0,1,3.39,1.06h0l7.62,7.62.3.33a9.51,9.51,0,0,1,1.58,10.26h0a20.71,20.71,0,0,0,4.07,23.45,21.24,21.24,0,0,0,13,6.09c1.22.11,18.64,0,18.64,0a3.8,3.8,0,0,0,2.58-1.13,4.16,4.16,0,0,0,1.23-2.68V38c0-.74-.1-1.49-.2-2.22a19.82,19.82,0,0,0-6-12.49,20.23,20.23,0,0,0-3.64-2.88ZM130.09,34a20.2,20.2,0,0,1,.51,3.64V46a3.65,3.65,0,0,1-3.55,3.74h-8.34a16.57,16.57,0,0,1-3.83-.51,12.28,12.28,0,1,1,12.06-20.55,11,11,0,0,1,3.17,5.36Z"/></g></g></g></svg>