<svg xmlns="http://www.w3.org/2000/svg" xmlns:xlink="http://www.w3.org/1999/xlink" viewBox="0 0 73.2 73.2"><defs><style>.cls-1{fill:url(#linear-gradient);}.cls-2{fill:url(#linear-gradient-2);}.cls-3{fill:url(#linear-gradient-3);}</style><linearGradient id="linear-gradient" y1="36.6" x2="73.2" y2="36.6" gradientUnits="userSpaceOnUse"><stop offset="0" stop-color="#00afb1"/><stop offset="1" stop-color="#7a55de"/></linearGradient><linearGradient id="linear-gradient-2" x1="26.82" y1="37.01" x2="33.48" y2="37.01" xlink:href="#linear-gradient"/><linearGradient id="linear-gradient-3" x1="40.15" y1="37.01" x2="46.82" y2="37.01" xlink:href="#linear-gradient"/></defs><title>pausedAsset 15</title><g id="Layer_2" data-name="Layer 2"><g id="app_layout_2" data-name="app layout 2"><path class="cls-1" d="M73.2,36.6A36.6,36.6,0,1,0,36.6,73.2,36.62,36.62,0,0,0,73.2,36.6ZM6,36.6A30.6,30.6,0,1,1,36.6,67.2,30.6,30.6,0,0,1,6,36.6Z"/><path class="cls-2" d="M30.15,51.18a3.34,3.34,0,0,1-3.33-3.33V26.18a3.33,3.33,0,0,1,6.66,0V47.85A3.34,3.34,0,0,1,30.15,51.18Z"/><path class="cls-3" d="M43.48,51.18a3.34,3.34,0,0,1-3.33-3.33V26.18a3.34,3.34,0,0,1,6.67,0V47.85A3.34,3.34,0,0,1,43.48,51.18Z"/></g></g></svg>