<svg xmlns="http://www.w3.org/2000/svg" viewBox="0 0 20 20"><defs><style>.cls-1{fill:#fff;}</style></defs><title>pause syncAsset 19</title><g id="Layer_2" data-name="Layer 2"><g id="app_layout_1" data-name="app layout 1"><path class="cls-1" d="M10,20A10,10,0,1,1,20,10,10,10,0,0,1,10,20ZM10,2a8,8,0,1,0,8,8A8,8,0,0,0,10,2Z"/><path class="cls-1" d="M8,14.25a1,1,0,0,1-1-1V6.75a1,1,0,0,1,2,0v6.5A1,1,0,0,1,8,14.25Z"/><path class="cls-1" d="M12,14.25a1,1,0,0,1-1-1V6.75a1,1,0,0,1,2,0v6.5A1,1,0,0,1,12,14.25Z"/></g></g></svg>