<svg xmlns="http://www.w3.org/2000/svg" viewBox="0 0 20 20"><defs><style>.cls-1{fill:#fff;}</style></defs><title>sync againAsset 18</title><g id="Layer_2" data-name="Layer 2"><g id="app_layout_2" data-name="app layout 2"><path class="cls-1" d="M10,20A10,10,0,1,1,20,10,10,10,0,0,1,10,20ZM10,2a8,8,0,1,0,8,8A8,8,0,0,0,10,2Z"/><path class="cls-1" d="M8.21,13.81a1,1,0,0,1-.49-.14,1,1,0,0,1-.5-.86V7.39a1,1,0,0,1,.5-.86,1,1,0,0,1,1,0l4.63,2.71a1,1,0,0,1,.48.86,1,1,0,0,1-.48.86L8.72,13.67A1.06,1.06,0,0,1,8.21,13.81Z"/></g></g></svg>