<svg xmlns="http://www.w3.org/2000/svg" xmlns:xlink="http://www.w3.org/1999/xlink" viewBox="0 0 73.2 73.2"><defs><style>.cls-1{fill:url(#linear-gradient);}.cls-2{fill:url(#linear-gradient-2);}</style><linearGradient id="linear-gradient" y1="36.6" x2="73.2" y2="36.6" gradientUnits="userSpaceOnUse"><stop offset="0" stop-color="#00afb1"/><stop offset="1" stop-color="#7a55de"/></linearGradient><linearGradient id="linear-gradient-2" x1="17.3" y1="37.64" x2="55.9" y2="37.64" xlink:href="#linear-gradient"/></defs><title>syncrhronizedAsset 14</title><g id="Layer_2" data-name="Layer 2"><g id="app_layout_1" data-name="app layout 1"><path class="cls-1" d="M73.2,36.6A36.6,36.6,0,1,0,36.6,73.2,36.62,36.62,0,0,0,73.2,36.6ZM6,36.6A30.6,30.6,0,1,1,36.6,67.2,30.6,30.6,0,0,1,6,36.6Z"/><path class="cls-2" d="M55.1,25.7a3,3,0,0,0-4.2-.1L32.2,43.3l-9.8-9.8a3,3,0,1,0-4.2,4.2L30,49.6a3,3,0,0,0,2.1.9,3.44,3.44,0,0,0,2.1-.8L54.9,30A3,3,0,0,0,55.1,25.7Z"/></g></g></svg>