<svg xmlns="http://www.w3.org/2000/svg" viewBox="0 0 926.29 243.25"><defs><style>.cls-1{fill:#fff;}</style></defs><title>text whiteAsset 22</title><g id="Layer_2" data-name="Layer 2"><g id="Layer_1-2" data-name="Layer 1"><g id="_Group_" data-name="&lt;Group&gt;"><path id="_Compound_Path_" data-name="&lt;Compound Path&gt;" class="cls-1" d="M137,69.34V179.22c0,51.45-39.7,64-73,64-18.18,0-33-3.36-47.53-12.58A14.72,14.72,0,0,1,24,203.26a14.78,14.78,0,0,1,7.55,2.24C41.1,211.65,52,214.17,64,214.17c17,0,37.18-7.55,37.18-34.11V166.64c-10.9,13.42-25.16,21-41.66,21C25.72,187.61,0,163.84,0,118.83,0,74.65,25.44,50.05,59.55,50.05c15.94,0,30.48,6.71,41.66,20.69V68.5c0-9.51,8.39-17,18.18-17A18,18,0,0,1,137,69.34Zm-35.79,71.3V97c-5.87-9-18.73-15.38-30.47-15.38-20.13,0-34.11,14-34.11,37.19S50.61,156,70.74,156C82.48,156,95.34,149.3,101.21,140.64Z"/><path id="_Compound_Path_2" data-name="&lt;Compound Path&gt;" class="cls-1" d="M163.56,120.78c0-38.3,26.84-70.73,71.3-70.73,44.73,0,71.57,32.43,71.57,70.73,0,38.59-26.84,71-71.57,71C190.4,191.8,163.56,159.37,163.56,120.78Zm106,0c0-21-12.58-39.14-34.67-39.14s-34.39,18.18-34.39,39.14c0,21.25,12.3,39.43,34.39,39.43S269.53,142,269.53,120.78Z"/><path id="_Compound_Path_3" data-name="&lt;Compound Path&gt;" class="cls-1" d="M324.05,120.78c0-38.3,26.84-70.73,71.29-70.73,44.74,0,71.58,32.43,71.58,70.73,0,38.59-26.84,71-71.58,71C350.89,191.8,324.05,159.37,324.05,120.78Zm106,0c0-21-12.58-39.14-34.67-39.14S361,99.82,361,120.78c0,21.25,12.31,39.43,34.39,39.43S430,142,430,120.78Z"/><path id="_Compound_Path_4" data-name="&lt;Compound Path&gt;" class="cls-1" d="M630.2,121.06c0,45-25.72,70.74-59.83,70.74-15.94,0-30.48-7-41.38-20.13v1.4c0,9.78-8.67,17.33-17.89,17.33a17.84,17.84,0,0,1-17.9-17.89V17.89a17.76,17.76,0,1,1,35.51,0V70.74a51.21,51.21,0,0,1,41.66-20.69C604.76,50.05,630.2,76.89,630.2,121.06Zm-36.62,0c0-23.48-13.7-39.42-34.39-39.42-11.47,0-24.61,6.71-30.48,15.66v47.81c5.87,8.67,19,15.1,30.48,15.1C579.88,160.21,593.58,144.55,593.58,121.06Z"/><path id="_Compound_Path_5" data-name="&lt;Compound Path&gt;" class="cls-1" d="M648.38,120.78c0-38.3,26.84-70.73,71.29-70.73,44.74,0,71.58,32.43,71.58,70.73,0,38.59-26.84,71-71.58,71C675.22,191.8,648.38,159.37,648.38,120.78Zm106,0c0-21-12.58-39.14-34.67-39.14s-34.39,18.18-34.39,39.14c0,21.25,12.31,39.43,34.39,39.43S754.34,142,754.34,120.78Z"/><path id="_Compound_Path_6" data-name="&lt;Compound Path&gt;" class="cls-1" d="M926.29,174.19c0,7.55-6.15,16.21-16.21,16.21-4.48,0-9.51-1.39-12.3-5.31l-34.39-42.5-33.84,41.94c-3.35,4.48-7.82,5.87-12.3,5.87-10.34,0-16.21-8.66-16.21-16.21a15.23,15.23,0,0,1,4.19-10.63l37.46-45-34.94-40a17.23,17.23,0,0,1-4.2-10.63,16.7,16.7,0,0,1,16.5-16.49c4.19,0,8.39.83,12,5.31L863.66,94.5l31.6-37.74c3.35-4.48,7.83-5.31,12-5.31a16.7,16.7,0,0,1,16.5,16.49,17.23,17.23,0,0,1-4.2,10.63l-35,40,37.47,45A16.59,16.59,0,0,1,926.29,174.19Z"/></g></g></g></svg>