<svg xmlns="http://www.w3.org/2000/svg" xmlns:xlink="http://www.w3.org/1999/xlink" viewBox="0 0 1930.53 1930.53"><defs><style>.cls-1{fill:url(#linear-gradient);}</style><linearGradient id="linear-gradient" x1="282.72" y1="282.72" x2="1647.81" y2="1647.81" gradientUnits="userSpaceOnUse"><stop offset="0" stop-color="#00afb1"/><stop offset="1" stop-color="#7a55de"/></linearGradient></defs><title>transparent iconAsset 7</title><g id="Layer_2" data-name="Layer 2"><g id="Layer_1-2" data-name="Layer 1"><path id="_Compound_Path_" data-name="&lt;Compound Path&gt;" class="cls-1" d="M965.26,0C432.16,0,0,432.16,0,965.26s432.16,965.27,965.26,965.27,965.27-432.17,965.27-965.27S1498.36,0,965.26,0Zm-299,1351.26h673.66c2.12,0,7.77-.5,10.76-7.68s-1-11.59-2.49-13.1L1234.07,1217.2,1124,1105.69a21.57,21.57,0,0,0-15.52-6.43h-.15a21.73,21.73,0,0,0-15.45,6.19L978.9,1217.77a75.85,75.85,0,0,1-106.65-.39l-.55-.56a75.8,75.8,0,0,1-.12-106.9L985,996a22,22,0,0,0-.14-31.19L872.5,854a75.69,75.69,0,0,1-.36-107.38l.22-.21a75.89,75.89,0,0,1,106.53-.48l113.93,111.91a22,22,0,0,0,31.08-.24l110.17-111.73a74.88,74.88,0,0,1,53.61-22.56h.27a75.21,75.21,0,0,1,53.5,22.19l.13.13a75.88,75.88,0,0,1,.33,106.65L1229.28,966.4a22.08,22.08,0,0,0,0,30.94l39.25,39.6a74.65,74.65,0,0,1,5.93,5.37l180.6,181.91a162.47,162.47,0,0,1-21.92,247.23c-27.13,19.07-59.39,28.81-93.28,28.81H666.23a239.77,239.77,0,0,1-240-240V670.31a239.77,239.77,0,0,1,240-240h761.38c41.61,0,75.34,32.89,75.34,74.5s-33.73,74.5-75.34,74.5H666.23c-49.65,0-89,41.4-89,91v589.9C577.26,1309.87,616.58,1351.26,666.23,1351.26Z"/></g></g></svg>